<?xml version="1.0" encoding="UTF-8"?>
<svg id="Layer_1" data-name="Layer 1" xmlns="http://www.w3.org/2000/svg" viewBox="0 0 1080 1080">
  <defs>
    <style>
      .cls-1 {
        fill: #215de4;
      }
    </style>
  </defs>
  <path class="cls-1" d="M59.01,660.67c-38.54-125.18-28.45-337.04,93.06-407.69,194.9-113.32,345.5,105.44,532.45,104.18,94.01-.63,178.83-59.99,262.32-91.89,89.06,132.46,117.75,290.93,67.65,438.67-9.4,27.71-39.18,112.08-62.26,122.12-11.31,4.92-134.46-61.77-164.05-72.43-241.41-87-350.79,136.4-550.32,89.1-104.87-24.86-149.1-85.36-178.87-182.05ZM757.75,251.71c43.31-15.5,80.94-44.86,124.53-59.8C717.77-22.01,379.74-34.68,190.76,156.06c227.96-62.2,336.43,178.17,567,95.65ZM344.49,1014.8c26.09,15.43,127.06,29.7,161.91,30.79,123.59,3.85,302.31-54.46,363.48-165.8-55.02-15.48-91.98-46.22-149.06-62.53-141.71-40.5-240.4,57.99-365.27,104.24l-147.24,12.74,136.18,80.56Z"/>
</svg>