<?xml version="1.0" encoding="UTF-8"?>
<svg id="Layer_1" data-name="Layer 1" xmlns="http://www.w3.org/2000/svg" viewBox="0 0 1080 332.46">
  <defs>
    <style>
      .cls-1 {
        fill: #0b1846;
      }
    </style>
  </defs>
  <g>
    <path class="cls-1" d="M311.27,118.81c10.56-7.65,22.25-11.48,35.07-11.48h14.23v28.33h-14.23c-9.65,0-17.93,3.95-24.83,11.85-6.82,7.91-10.23,17.39-10.23,28.45v68.88h-28.33V107.33h28.33v11.48Z"/>
    <path class="cls-1" d="M497.46,215.15c-5.74,8.82-13.23,15.93-22.46,21.34-10.73,6.49-22.34,9.73-34.82,9.73-19.05,0-35.32-6.86-48.79-20.59-13.48-13.64-20.22-30.16-20.22-49.54s6.74-35.9,20.22-49.54c13.48-13.73,29.74-20.59,48.79-20.59s35.23,6.86,48.79,20.59c13.48,13.65,20.22,30.16,20.22,49.54v11.85h-106.57c2.33,9.07,7.15,16.35,14.48,21.84,6.9,4.99,14.6,7.49,23.09,7.49,13.89,0,24.62-5.53,32.2-16.6l25.08,14.48ZM477.74,161.62c-2.91-7.9-7.74-14.31-14.48-19.22-6.91-4.99-14.6-7.49-23.09-7.49s-16.18,2.5-23.09,7.49c-6.74,4.91-11.56,11.31-14.48,19.22h75.12Z"/>
    <path class="cls-1" d="M664.55,244.85h-28.95v-11.85c-11.98,8.82-25.33,13.23-40.06,13.23-19.05,0-35.32-6.86-48.79-20.59-13.48-13.64-20.22-30.16-20.22-49.54s6.74-35.9,20.22-49.54c13.48-13.73,29.74-20.59,48.79-20.59,14.73,0,28.08,4.37,40.06,13.1v-11.73h28.95v137.52ZM595.54,217.27c10.98,0,20.42-3.99,28.33-11.98,7.82-8.07,11.73-17.8,11.73-29.2s-3.91-21.13-11.73-29.2c-7.91-7.99-17.35-11.98-28.33-11.98s-20.55,3.99-28.45,11.98c-7.74,8.07-11.61,17.8-11.61,29.2s3.87,21.13,11.61,29.2c7.9,7.99,17.39,11.98,28.45,11.98Z"/>
    <path class="cls-1" d="M728.81,107.33h18.59v28.33h-18.59v109.19h-28.33v-109.19h-18.47v-28.33h18.47v-44.67h28.33v44.67Z"/>
    <path class="cls-1" d="M792.83,65.97c2.99,3.04,4.49,6.72,4.49,11.04s-1.5,8.01-4.49,11.04c-2.99,3.04-6.7,4.55-11.11,4.55s-8.01-1.52-11.04-4.55c-3.04-3.04-4.55-6.72-4.55-11.04s1.52-8.01,4.55-11.04,6.72-4.55,11.04-4.55,8.11,1.52,11.11,4.55ZM767.5,244.85h28.33V107.33h-28.33v137.52Z"/>
    <path class="cls-1" d="M852.35,75.64c8.82-8.4,21.46-12.6,37.94-12.6h15.6v28.33h-15.6c-8.9,0-15.06,1.62-18.47,4.87-2.33,2.25-3.83,5.95-4.49,11.11h38.31v28.33h-38.68v109.19h-28.33v-109.19h-13.85v-28.33h14.1c1-13.48,5.49-24.04,13.48-31.7Z"/>
    <path class="cls-1" d="M950.31,170.85c0,9.9,3.41,18.34,10.23,25.33,6.82,7.07,15.06,10.61,24.71,10.61s17.89-3.49,24.71-10.48c6.82-7.07,10.23-15.55,10.23-25.46,0-1.08-.04-2.16-.12-3.24v-60.27h28.95v115.43c-.33,19.72-6.7,36.11-19.09,49.17-12.4,13.14-26.95,19.72-43.68,19.72-12.65,0-24.96-4.16-36.94-12.48-11.06-7.74-19.18-17.72-24.33-29.95l27.08-10.36c3.08,6.74,7.65,12.27,13.73,16.6,6.99,4.82,13.81,7.24,20.47,7.24,8.98,0,16.8-3.83,23.46-11.48,6.07-6.99,9.48-15.68,10.23-26.08-10.57,6.99-22.13,10.48-34.69,10.48-17.64,0-32.69-6.32-45.17-18.97-12.48-12.65-18.72-27.91-18.72-45.8v-63.52h28.95v63.52Z"/>
  </g>
  <g>
    <path class="cls-1" d="M35.65,190.01c-9-29.23-6.64-78.7,21.73-95.19,45.51-26.46,80.67,24.62,124.32,24.32,21.95-.15,41.75-14.01,61.25-21.46,20.8,30.93,27.49,67.93,15.8,102.43-2.19,6.47-9.15,26.17-14.54,28.51-2.64,1.15-31.4-14.42-38.3-16.91-56.37-20.31-81.91,31.85-128.49,20.8-24.49-5.8-34.81-19.93-41.76-42.51Z"/>
    <path class="cls-1" d="M66.41,72.19c44.13-44.53,123.05-41.58,161.47,8.37-10.18,3.49-18.96,10.34-29.08,13.96-53.83,19.27-79.16-36.86-132.39-22.33Z"/>
    <path class="cls-1" d="M70.51,253.89l34.38-2.97c29.16-10.8,52.2-33.79,85.29-24.34,13.33,3.81,21.96,10.99,34.8,14.6-14.28,26-56.01,39.61-84.87,38.71-8.14-.25-31.71-3.58-37.8-7.19l-31.8-18.81Z"/>
  </g>
</svg>