<?xml version="1.0" encoding="UTF-8"?>
<svg id="Layer_1" data-name="Layer 1" xmlns="http://www.w3.org/2000/svg" viewBox="0 0 1080 1080">
  <defs>
    <style>
      .cls-1 {
        fill: #fefdfd;
      }

      .cls-2 {
        fill: #e1e1e2;
      }

      .cls-3 {
        fill: #d5d4d5;
      }

      .cls-4 {
        fill: #fefefd;
      }

      .cls-5 {
        fill: #d4d4d4;
      }

      .cls-6 {
        fill: #e0e1e3;
      }

      .cls-7 {
        fill: #17223e;
      }

      .cls-8 {
        fill: #dedee0;
      }

      .cls-9 {
        fill: #131c4d;
      }

      .cls-10 {
        fill: #c1c1c2;
      }

      .cls-11 {
        fill: #d0d1d1;
      }

      .cls-12 {
        fill: #dbdbdc;
      }

      .cls-13 {
        fill: #d0cfcf;
      }

      .cls-14 {
        fill: #15223c;
      }

      .cls-15 {
        fill: #15223d;
      }

      .cls-16 {
        fill: #131c4c;
      }

      .cls-17 {
        fill: #dcdbdb;
      }

      .cls-18 {
        fill: #f63f23;
      }

      .cls-19 {
        fill: #e1e0e2;
      }

      .cls-20 {
        fill: #15213c;
      }

      .cls-21 {
        fill: #fdfdfd;
      }

      .cls-22 {
        fill: #16233e;
      }
    </style>
  </defs>
  <g id="Generative_Object" data-name="Generative Object">
    <path class="cls-21" d="M98.52,490.75c-.9-5.19-.5-10.69-.11-15.83,1-13.88,9.87-27.04,20.41-35.86,1.74-1.47,3.29-3.9,6.19-3.74-6.69,5.69-12.48,11.06-16.67,18.48-13.22,23.09-6.03,51.58,18.59,62.06-4.63,12.85-5.21,26.04-.97,38.44,6.06,18.67,24.12,29.54,43.39,26.02,8.56-1.58,15.43-5.77,22.22-12.09-.9,10.03-1.66,19.14-1.13,29.07l-10.3-.26c1.11-2,3.37-4.66,2.66-6.82-1.45-4.34-6.37-3.63-9.82-2.66l-7.61,2.19c-6.71,1.11-13.22-1.55-19.41-3.32-8.85-2.53-13.27-7.14-18.19-14.43-2.92-4.32-5.58-8.29-6.53-13.61l-2.05-11.59c-.34-2,.08-3.42.13-5.58l.18-9.48c.11-4.58-.82-8.61-3.82-11.77l-7.58-7.95-5.27-8.32c-2.34-3.69-3.58-8.53-4.32-12.96Z"/>
    <path class="cls-21" d="M203.03,508.94c-.84,2.45-2.24,4.56-3.9,6.53l-15.56,18.46-15.19,16.14c-1.76,1.87-4.53,2.66-7,2.45-2.19-.18-4.66-1.82-6.24-4-7.08-9.87-2.53-26.46,6.08-34.07,19.3-17.06,44.53-13.46,41.81-5.5Z"/>
    <path class="cls-21" d="M131.65,482.72c-7.77-16.17,21.43-36.55,43.74-37.5,14.54-.63,37.44,5.98,41.31,19.7,1.26,4.56-.84,8.43-5.21,9.82-10.45,3.29-22.04-3.45-38.76,4.29l-16.56,7.69c-9.35,4.32-20.17,5.06-24.51-4Z"/>
    <path class="cls-21" d="M141.73,263.11c-3.21-10.09-5.82-20.59-5.16-31.39.47-8.06,5.77-23.36,12.51-27.31-13.53,19.04-9.43,40.73.61,60.67,9.8,19.43,21.33,37.47,34.44,54.85,24.04,31.65,53.19,54.19,87.37,74.15-13.24,15.27-24.88,30.33-35.31,47.42l-8.64-9.22c5.82,2.63,11.14,2.05,14.67-2.82l11.35-15.75c1.92-2.66,4.27-4.98,5.63-7.9,2.13-4.56.18-8.74-3.82-11.66l-11.8-8.64c-4.37-3.21-8.87-5.92-13.35-9.27l-3.34-2.5c-7.58-5.69-14.19-11.93-20.8-18.67l-4.53-4.61c-8.79-8.98-16.98-17.93-24.25-28.17l-3-4.21c-9.72-13.67-18.38-27.6-26.17-42.42-2.26-4.29-4.87-7.82-6.4-12.56Z"/>
    <path class="cls-21" d="M603.38,108.86l-9.56,1.74c.26-1.05,1.32-1.55,2.32-1.69l10.01-1.53,21.86.16,9.19,1.26,13.27,2.74c5.77,1.21,10.77,3.55,16.22,5.82l6.87,2.87,9.06,5.9,9.95,9.93c6.82,6.82,12.01,23.94,12.3,35.36.11,4,.79,7.53-.13,12.09-.74,3.66.32,7.98,2.95,10.06,1.55,1.24,3.84.53,5.5.03,2-.5,3.61-2.16,6.24-.9l-24.25,11.06c4.63-21.22,7.53-46.71-4.58-64.99-6.19-9.32-15.3-15.93-25.75-20.22-19.54-8.03-40.47-11.09-61.46-9.69Z"/>
    <path class="cls-21" d="M65.11,672.99c-2.61-17.98,0-34.55,17.27-42.39,8-3.61,16.46-5.66,25.49-5.61l51.19.4,35.6.42,19.72-1.13c2.29-.13,4.34-.92,6.29-2.48-4.87-27.78-.97-62.93,6.58-90.34,7.35-26.65,18.59-51.5,33.31-74.83,16.33-25.83,35.49-48.95,57.3-70.17-18.8-9.72-36.42-19.93-53.82-31.41-24.59-16.27-45.71-36.26-62.7-60.4-8.11-11.8-15.48-23.43-22.46-35.86-3.98-7.06-7.29-14.03-9.24-21.86-2.63-10.53,2.21-17.33,10.51-24.07,12.72-10.37,25.54-19.88,39.87-28.12,19.64-11.27,40.23-19.3,62.14-25.38,28.02-7.77,56.3-12.67,85.5-12.3,35.07.47,69.12,7.69,100.85,22.28,36.39,16.98,65.41,43.68,87.63,77.44,3.34-21.04,6.14-40.5,10.85-60.4,4.53-19.14,11.59-40.52,31.12-47.24,14.09-4.84,39.34-.97,53.74,4.32,12.22,4.48,18.72,11.85,18.8,25.07.08,10.9-1.63,21.33-4.06,31.94l-9.11,31.73-16.98,51.64c-.4.79.26,1.34.74.84,21.62-28.17,46.37-47.82,79.02-61.77,35.71-15.25,84.79-24.65,122.28-14.88,17.25,4.5,21.3,20.01,21.09,36.94-.18,14.77-2.13,28.89-5.5,43.26-4.45,17.19-10.98,33.2-20.7,48-6.61,10.06-14.75,18.22-23.99,26.25l27.62,23.41c47.98,44.26,83.26,99.61,99.01,163.31,6.87,27.83,10.53,55.8,9.58,84.58-1.63,50.24-17.25,103.93-45.58,145.64-10.64,15.61-23.15,29.2-36.76,42.21-.42.4-.76.76-.84,1.03-.05.24.13.95.58,1.21l27.31,16.06,27.41,15.96c5.5,3.21,10.66,10.66,7.5,14.4-.76.92-2.4,2.08-4.19,2.11l-20.91.42-61.54-1.08-80.97,1.21-57.61,3.92c-18.67,1.26-36.26,5.19-54.37,9.74l-60.04,17.64-57.77,16.83c-22.01,6.42-44,9.87-66.99,11.32l-64.17,1.69c-61.46-.24-121.89-3.05-182.71-8.64-17.3-1.58-33.84-3.82-50.66-7.14-5.4-1.08-10.43-2.58-15.27-4.69-5.85-2.53-8.51-6.95-9.16-13.14l-2.71-24.51-7.53-13.06-9.61-24.17-20.46-48.87-29.62-83.6c-3.95-11.11-6.19-22.09-7.87-33.65Z"/>
    <path class="cls-21" d="M967.8,783.26c-1.92,13.61-10.16,25.8-21.72,33.2-10.82,6.93-27.6,6.77-27.46.63.24-10.98,13.48-15.25,17.41-24.8,6.69-16.3.82-29.6,8.35-37.07,2.84-2.82,7.29-2.21,10.74-.16,9.61,5.71,14.32,16.72,12.69,28.2Z"/>
    <path class="cls-21" d="M733.9,187.22c-.13-.21-.03-.76.5-.97l5.61-2.11,10.27-2.69,9.45-1.63,12.77-2.21c4-.68,7.64-1.87,11.9-1.71l8.29-1.18,7.85-.58,19.67.24,16.11,1.9,12.03,2.98,14.72,4.9c11.82,5.29,21.43,16.46,27.65,28.02,4.16,7.72,7.35,22.54,7.37,30.86l.05,18.38-2.11,20.56-4.11,19.14c-2.03,9.37-4.53,18.35-8.51,27.1l-3.45,7.58-6.29,13.17-2.53,4.66c-4.03,7.35-5.66,11.88-.08,17.51l14.25,14.32,14.14,16.17,19.38,24.75,3.92,5.87c7.85,11.69,15.4,23.38,21.51,36.05l5.27,10.95,5.29,11.43,5.53,13.96,5.37,14.09,4.98,16.43,9.43,41.76,2.95,24.91.66,7.66.47,10.8c.24,5.66.11,11.09-.08,16.72l-.37,12.67-.63,13.03-.71,7.61-3.48,19.8-6.64,31.55c-.71,3.34,1.66,8.32,4.34,10.32,8.35,6.24,14.85,13.35,19.46,22.83,1.82,3.71,3.66,7.74,7.16,10.3.03.55-.63,1.32-1.29,1.34l-6.66.26c-3.63-18.62-15.96-33.63-33.6-40.39,5.56-15.46,9.06-30.41,11.8-46.32,5.63-32.68,6.24-65.33,1.84-98.37-6.35-45.66-21.38-89.76-44.58-129.6-18.46-31.7-41.76-59.88-68.28-84.81l-6.9-6.5c26.23-33.84,37.76-81.34,36.07-123.21l-1.76-12.93c-2.79-14.98-11.3-28.39-24.33-36.5-20.96-13.01-55.22-13.19-79.97-10.77-17.43,1.71-33.91,5.35-50.58,10.22-.66.18-.97.05-1.16-.29Z"/>
    <path class="cls-21" d="M1001.4,795.03c5.4.29,9.72,4.34,11.93,9.37,5.11,11.66,2.29,25.41-6.45,34.7-8.06,8.56-18.41,14.22-29.99,15.96-9.95,1.47-22.46-3.13-22.57-10.03-.03-2.11,1.13-4.19,3.11-5.48l14.4-9.51c6.14-4.06,10.11-9.35,13.3-15.98l6.06-12.67c1.76-3.69,5.87-6.61,10.22-6.37Z"/>
    <path class="cls-21" d="M1049.22,826.32c-.66,5.63-2.08,10.93-3.84,16.25-5.48,16.54-15.54,27.36-29.73,37.13-12.69,8.72-33.05,15.19-48.58,14.19-14.25-.9-19.04,12.22-30.07,14.61l-6.87,1.47-9.72.66-19.3-.05c-3.37-.03-5.92-.66-9.43-.05l-5.9-.16-17.75.08c-3.69,0-6.79-.03-10.51-.03l-21.04.03c-5.24.03-10.56.71-15.77.08-2.9-.37-5.06-.03-7.93.03l-37.18.63-18.17.58-7.61.79-11.74.37-7.61.47c-20.33,1.24-40.29,3.61-60.17,7.72l-14.19,3.42-22.22,6.24-12.51,3.77-36.55,11.27-16.14,4.71-13.24,3.63c-13.69,3.79-26.83,7.9-40.92,10.19l-24.96,4.06-17.69,1.79-8.19.58c-2.61.16-4.58-.32-7.37,0l-6.95.82-14.69.45-31.28.5-4.13.08-36.1-.37-21.86-.84-20.59-.71-12.01-.45-9.08-.61-15.59-.63-8.98-.79-10.45-.53-9.69-.66-7-.74-7.21-.58-9.08-.63-7.79-.66-6.45-.71-9.61-.63-11.64-1.37c-15.35-1.79-30.33-3.71-45.13-7.87-10.32-2.9-19.09-8.14-27.02-15.22l-4.16-4.74c-4.56-5.19-7.14-11.95-8.27-18.91l-2.05-12.77c-.66-3.92-1.13-7.87-2.76-11.69l-5.45-12.74-16.75-38.97-22.22-56.72-10.69-29.54-8.87-26.78-2.63-7.77-4.08-14.03-1.79-9.85c-.82-4.37-1.84-8.24-2.34-12.74l-.68-6.29c-1.95-17.83,2.95-39.58,15.61-52.95.87-.92,1.74.11.71.71-14.19,18.85-13.67,43.32-8.98,65.72,3.03,14.59,6.98,28.31,12.09,42.37l29.83,82.1,16.62,39.13,15.69,36,2.58,22.14c3.55,13.74,11.82,24.49,24.96,30.36,7.93,3.55,16.11,6.21,24.96,7.35l52.82,6.79c53.11,4.74,105.85,7.56,159.25,8.51l81.73-1.29c29.36-1.45,57.4-6.27,85.68-14.03l77.44-22.99,48.4-13.17c17.41-3.71,34.36-5.4,52.24-6.87l95.85-3.71,101.64.26c29.62.08,34.63-18.12,36.28-18.99.87-.45,9.58,4.03,22.54,2.08,17.96-2.69,34.63-11.4,47.45-24.38,20.33-20.56,24.07-53.82,7.11-77.47-.74-.26-.47-1.16.32-1.11l5.69,6.64,4.63,8.93c3.77,7.24,4.32,15.32,4.63,23.33l.24,5.79Z"/>
    <g>
      <path class="cls-11" d="M1049.22,826.32c-.66,5.63-2.08,10.93-3.84,16.25-5.48,16.54-15.54,27.36-29.73,37.13-12.69,8.72-33.05,15.19-48.58,14.19-14.25-.9-19.04,12.22-30.07,14.61l-6.87,1.47-9.72.66-19.3-.05c-3.37-.03-5.92-.66-9.43-.05l-5.9-.16-17.75.08c-3.69,0-6.79-.03-10.51-.03l-21.04.03c-5.24.03-10.56.71-15.77.08-2.9-.37-5.06-.03-7.93.03l-37.18.63-18.17.58-7.61.79-11.74.37-7.61.47c-20.33,1.24-40.29,3.61-60.17,7.72l-14.19,3.42-22.22,6.24-12.51,3.77-36.55,11.27-16.14,4.71-13.24,3.63c-13.69,3.79-26.83,7.9-40.92,10.19l-24.96,4.06-17.69,1.79-8.19.58c-2.61.16-4.58-.32-7.37,0l-6.95.82-14.69.45-31.28.5-4.13.08-36.1-.37-21.86-.84-20.59-.71-12.01-.45-9.08-.61-15.59-.63-8.98-.79-10.45-.53-9.69-.66-7-.74-7.21-.58-9.08-.63-7.79-.66-6.45-.71-9.61-.63-11.64-1.37c-15.35-1.79-30.33-3.71-45.13-7.87-10.32-2.9-19.09-8.14-27.02-15.22l-4.16-4.74c-4.56-5.19-7.14-11.95-8.27-18.91l-2.05-12.77c-.66-3.92-1.13-7.87-2.76-11.69l-5.45-12.74-16.75-38.97-22.22-56.72-10.69-29.54-8.87-26.78-2.63-7.77-4.08-14.03-1.79-9.85c-.82-4.37-1.84-8.24-2.34-12.74l-.68-6.29c-1.95-17.83,2.95-39.58,15.61-52.95.87-.92,1.74.11.71.71-14.19,18.85-13.67,43.32-8.98,65.72,3.03,14.59,6.98,28.31,12.09,42.37l29.83,82.1,16.62,39.13,15.69,36,2.58,22.14c3.55,13.74,11.82,24.49,24.96,30.36,7.93,3.55,16.11,6.21,24.96,7.35l52.82,6.79c53.11,4.74,105.85,7.56,159.25,8.51l81.73-1.29c29.36-1.45,57.4-6.27,85.68-14.03l77.44-22.99,48.4-13.17c17.41-3.71,34.36-5.4,52.24-6.87l95.85-3.71,101.64.26c29.62.08,34.63-18.12,36.28-18.99.87-.45,9.58,4.03,22.54,2.08,17.96-2.69,34.63-11.4,47.45-24.38,20.33-20.56,24.07-53.82,7.11-77.47-.74-.26-.47-1.16.32-1.11l5.69,6.64,4.63,8.93c3.77,7.24,4.32,15.32,4.63,23.33l.24,5.79Z"/>
      <path class="cls-17" d="M1003.3,765.1c.03.55-.63,1.32-1.29,1.34l-6.66.26c-3.63-18.62-15.96-33.63-33.6-40.39,5.56-15.46,9.06-30.41,11.8-46.32,5.63-32.68,6.24-65.33,1.84-98.37-6.35-45.66-21.38-89.76-44.58-129.6-18.46-31.7-41.76-59.88-68.28-84.81l-.92-1.79c2.08-8.95,5.4-17.56,10.01-25.83,12.3-22.72,18.88-50.53,20.78-76.26.61-8.35,1.24-17.93-.68-25.83l-1.76-12.93c-2.79-14.98-11.3-28.39-24.33-36.5-20.96-13.01-55.22-13.19-79.97-10.77-17.43,1.71-33.91,5.35-50.58,10.22-.66.18-.97.05-1.16-.29-.13-.21-.03-.76.5-.97l5.61-2.11,10.27-2.69,9.45-1.63,12.77-2.21c4-.68,7.64-1.87,11.9-1.71l8.29-1.18,7.85-.58,19.67.24,16.11,1.9,12.03,2.98,14.72,4.9c11.82,5.29,21.43,16.46,27.65,28.02,4.16,7.72,7.35,22.54,7.37,30.86l.05,18.38-2.11,20.56-4.11,19.14c-2.03,9.37-4.53,18.35-8.51,27.1l-3.45,7.58-6.29,13.17-2.53,4.66c-4.03,7.35-5.66,11.88-.08,17.51l14.25,14.32,14.14,16.17,19.38,24.75,3.92,5.87c7.85,11.69,15.4,23.38,21.51,36.05l5.27,10.95,5.29,11.43,5.53,13.96,5.37,14.09,4.98,16.43,9.43,41.76,2.95,24.91.66,7.66.47,10.8c.24,5.66.11,11.09-.08,16.72l-.37,12.67-.63,13.03-.71,7.61-3.48,19.8-6.64,31.55c-.71,3.34,1.66,8.32,4.34,10.32,8.35,6.24,14.85,13.35,19.46,22.83,1.82,3.71,3.66,7.74,7.16,10.3Z"/>
      <g>
        <path class="cls-15" d="M203.03,508.94c-.84,2.45-2.24,4.56-3.9,6.53l-15.56,18.46-15.19,16.14c-1.76,1.87-4.53,2.66-7,2.45-2.19-.18-4.66-1.82-6.24-4-7.08-9.87-2.53-26.46,6.08-34.07,19.3-17.06,44.53-13.46,41.81-5.5Z"/>
        <path class="cls-22" d="M211.48,474.74c-10.45,3.29-22.04-3.45-38.76,4.29l-16.56,7.69c-9.35,4.32-20.17,5.06-24.51-4-7.77-16.17,21.43-36.55,43.74-37.5,14.54-.63,37.44,5.98,41.31,19.7,1.26,4.56-.84,8.43-5.21,9.82Z"/>
        <g>
          <path class="cls-9" d="M867.32,822c-.42.4-.76.76-.84,1.03-.05.24.13.95.58,1.21l27.31,16.06,27.41,15.96c5.5,3.21,10.66,10.66,7.5,14.4-.76.92-2.4,2.08-4.19,2.11l-20.91.42-61.54-1.08-80.97,1.21-57.61,3.92c-18.67,1.26-36.26,5.19-54.37,9.74l-60.04,17.64-57.77,16.83c-22.01,6.42-44,9.87-66.99,11.32l-64.17,1.69c-61.46-.24-121.89-3.05-182.71-8.64-17.3-1.58-33.84-3.82-50.66-7.14-5.4-1.08-10.43-2.58-15.27-4.69-5.85-2.53-8.51-6.95-9.16-13.14l-2.71-24.51-7.53-13.06-9.61-24.17-20.46-48.87-29.62-83.6c-3.95-11.11-6.19-22.09-7.87-33.65-2.61-17.98,0-34.55,17.27-42.39,8-3.61,16.46-5.66,25.49-5.61l51.19.4,35.6.42,19.72-1.13c2.29-.13,4.34-.92,6.29-2.48-4.87-27.78-.97-62.93,6.58-90.34,7.35-26.65,18.59-51.5,33.31-74.83,16.33-25.83,35.49-48.95,57.3-70.17-18.8-9.72-36.42-19.93-53.82-31.41-24.59-16.27-45.71-36.26-62.7-60.4-8.11-11.8-15.48-23.43-22.46-35.86-3.98-7.06-7.29-14.03-9.24-21.86-2.63-10.53,2.21-17.33,10.51-24.07,12.72-10.37,25.54-19.88,39.87-28.12,19.64-11.27,40.23-19.3,62.14-25.38,28.02-7.77,56.3-12.67,85.5-12.3,35.07.47,69.12,7.69,100.85,22.28,36.39,16.98,65.41,43.68,87.63,77.44,3.34-21.04,6.14-40.5,10.85-60.4,4.53-19.14,11.59-40.52,31.12-47.24,14.09-4.84,39.34-.97,53.74,4.32,12.22,4.48,18.72,11.85,18.8,25.07.08,10.9-1.63,21.33-4.06,31.94l-9.11,31.73-16.98,51.64c-.4.79.26,1.34.74.84,21.62-28.17,46.37-47.82,79.02-61.77,35.71-15.25,84.79-24.65,122.28-14.88,17.25,4.5,21.3,20.01,21.09,36.94-.18,14.77-2.13,28.89-5.5,43.26-4.45,17.19-10.98,33.2-20.7,48-6.61,10.06-14.75,18.22-23.99,26.25l27.62,23.41c47.98,44.26,83.26,99.61,99.01,163.31,6.87,27.83,10.53,55.8,9.58,84.58-1.63,50.24-17.25,103.93-45.58,145.64-10.64,15.61-23.15,29.2-36.76,42.21Z"/>
          <g>
            <g>
              <path class="cls-2" d="M750.55,752.53c.97.81,1.48.56,2.51-.07,26.5-16.27,50.23-36,70.42-59.71,6.97-8.19,13.16-16.25,18.62-25.58-11.02,1.5-24.53,1.8-32.62-5-3.78-3.03-4.65-7.98-1.8-11.93,8.59-11.91,34.97-15.57,50.49-15.78,3.46-.05,7.71-.7,10.11-3.21,7.92-8.26,16.07-43.21,17.84-57.37l3.46-24.63c4.88,18.4,9.18,36.53,11.53,55.67,4.32,35.21-.86,70.46-14.1,103.29-23.83,59.09-71.36,103.41-136.3,109.87-7.77.77-14.81,1.4-22.42.4l16.39-25.77c6.77-12.54,9.32-26.19,5.9-40.16Z"/>
              <path class="cls-8" d="M565.6,879.76c-44.9,11.79-96.17,20.65-142.21,18.13l-75.8-4.14-86.8-3.58-64.78-1.97c-11.04-.34-21.61-1.45-32.2-3.43-.57-1.17-.55-3.2.17-4.2,2.19-3.05,19.99-3.4,28.11-3.06l46.73,1.95,139.16,5.78,79.76,1.15c17.32.25,45.08-11.24,49.12-28.82,1.19-5.19.07-10.15-.6-15.4,4.98-1.56,9.95-1.58,15-1.36l30.52,1.35,87.98.13,24.45,1.37c1.87.1,3.34,1.47,3.76,3.1,1.11,4.38-4.93,7.4-10.78,8.93-21.49,5.63-42.9,10.3-64.93,13.49.69-6.2-3.11-10.02-8.84-10.47-17.69-1.39-35.38-.94-53.12.7-4.92.46-9.46,2.73-9.14,6.3.42,4.62,14.78,5.31,22.8,4.73l26.51-1.93c1.09-.08,2.23.57,2.87.9,3.36,1.76-.96,8.57-7.75,10.35Z"/>
              <path class="cls-4" d="M276,800.51c-9.22-.42-16.68-3.77-23.69-8.95-12.53-9.26-19.67-24.11-17.74-39.59,1.48-11.82,8.47-21.58,17.76-26.68,11.14-6.12,23.52-5.67,34.4.18,14.09,7.58,23.77,22.16,25,38.05,1.61,20.94-14.67,37.93-35.73,36.98Z"/>
              <path class="cls-19" d="M481.15,831.95c1.88,6.17,2.97,11.86,3.44,17.89.67,8.58-5.33,15.18-13.78,15.6l-24.15-76.41-40.56-128.41c-.86-2.71-.78-5.33.67-7.6,3.26-5.11,15-4.36,16.62.57l19.96,60.98,23.65,71,14.16,46.38Z"/>
              <path class="cls-6" d="M641.5,780.53c-9.74,3.32-20.11,2.21-29.9.33,2.46-8.78,11.72-10.05,20.43-9.59l16.55.87c-1.72,2.93-3.44,7.15-7.08,8.4Z"/>
            </g>
            <g>
              <path class="cls-18" d="M369.65,289.7c-3.73.91-7.61,3.32-8.1,6.82-.83,5.98,10.85,9.42,19.78,8.26l28.47-3.69c23.06-2.98,59.39,4.49,75.17,21.92,1.47,1.63,2.59,3.12,2.77,4.93.22,2.3-.64,4.17-2.42,5.87-14.97,14.36-46.89,20.82-68.02,22.54l-27.97.04c-19.56-1.34-38.16-5.84-56.1-13.83-23.77-10.59-45.14-24.97-63.9-42.96-14.22-13.63-26.49-28.45-35.93-45.66-1.96-3.57-3.88-7.27-4.2-11.4-.37-4.8,3.11-9.39,7.22-11.95,11.23-7,22.9-12.25,35.4-17.1,26.67-10.36,54.24-17.04,82.79-19.39,25.45-2.1,56.88,1.86,80.81,9.99,31.2,10.61,61,29.09,79.32,56.79,8.54,12.91,14.46,26.98,18.26,41.99,1.03,4.06,1.08,9.06-1.51,12.23-2.51,3.07-7.19,3.1-10.8,3.53-6.25.73-11.47-1-16.37-4.59l-14.96-10.97c-10.7-7.84-22.06-13.67-34.79-17.59-6.69-2.06-12.15-5.22-16.77-10.61-10.5-12.27-24-26.82-37.88-34.61-2.58-1.45-5.07-2.05-7.85-.79-2.06.94-4.52,3.35-4.18,6.42.4,3.61,2.76,6.56,4.98,9.11l6.67,7.68,5.87,6.44c3.79,4.16,8.04,7.88,10.64,13.23-16.09,1.56-30.96,3.56-46.39,7.34Z"/>
              <path class="cls-4" d="M798.16,315.47c-15.37,20.21-37.86,32.52-63.09,35.45-27.49,3.2-54.5-1.27-79.24-14.45,12.86-32.05,36.18-54.78,67.18-69.65,24.53-11.52,68.71-24.4,93.98-18.63,1.92.44,3.15,1.49,3.24,3.58,1.05,23.09-8.23,45.47-22.08,63.69Z"/>
              <path class="cls-10" d="M561.77,367.7l12.28-61.22,11.84-65.86,8.2-37.82c1.42-6.57,3.73-12.61,6.71-18.55,4.05-8.06,13.16-9,22.14-6.96l-28.18,123.92c-4.08,17.94-9.78,34.69-16.39,51.68-1.53,3.93-2.75,7.63-5.43,10.79-2.65,3.02-5.9,5.16-11.17,4.01Z"/>
              <g>
                <path class="cls-4" d="M889.56,549.23c.47,9.24-1.01,19.78-2.78,29-2.97,15.42-6.26,32.09-12.9,46.4-3.38,7.29-5.82,10.17-13.91,11.03-13.83.17-45.51,3.23-52.16,16.97-6.03,12.45,25.12,16.46,32.68,13.43,2.15.44,3.14.94,1.91,3.06-22.12,35.02-54.29,63.31-89.49,84.89-1.05.69-1.84.19-2.35-1.49-3.31-13.55-13.37-23.28-25.85-28.95-15.81-7.17-32.89-5.45-46.68,5.16l-17.65,15.93c-7.46,6.73-14.55,7.19-24.63,5.12-15.52-3.19-29.94,2.12-41.02,12.81-9.15,8.83-12.6,20.81-7.15,32.78l6.53,14.35c-14.1.79-27.57-.98-40.42-5.68l5.99-21.34c3.16-15.17-1.8-29.97-13.98-39.6-19.24-15.8-47.55-13.07-69.56-2.7l-13.23-47.9c-4.26-15.43-8.99-30.1-15.74-44.52l-7.42-13.26c-5.82-8.47-14.58-12.67-24.77-12.65l-52.53.1-97.68.23c-7.11-38.34.77-77.72,16.73-112.72,10.27-22.17,23.24-42.16,39-60.78,16.46-19.44,37.05-39.86,60.29-50.68l26.96-.91c23.1-1.71,45-7.59,65.93-17.56,18.73-8.92,37.38-16.48,57.31-23.06l-.32,21.17c-.13,8.79,5.38,16.01,13.65,19.43,21.96,9.07,51.26.59,61.97-20.9,3.54-7.1,4.74-14.62,6.92-22.21l24.66,8.47,50.2,18.41c13.85,4.25,27.38,6.85,41.85,7.21l27.77-1.18c17.92.67,42.87,20.31,56.34,33.35,36.53,35.37,62.54,79.73,75.56,128.79Z"/>
                <path class="cls-2" d="M539.11,690.26c-12.65,9.41-41.42,5.83-57.38.85-6.1-1.9-11.58-4.89-16.01-9.14-3.91-3.75-4.03-9.69.45-12.95,4.29-3.11,9.67-4.65,15.23-4.83,15.96-.53,31.87,2.03,46.8,7.56,5.27,1.95,9.74,4.99,12.46,9.58,1.9,3.2,1.43,6.7-1.56,8.93Z"/>
                <path class="cls-7" d="M579.32,428.5c-13.52,4.61-32.73,4.16-42.21-6.5-3.21-3.61-4.85-7.93-4.16-13.15,18.69,4.96,37.25,4.24,55.69-.94,2.71-.76,6.28-2.09,8.87-.93,1.77.97.56,4.74-.23,6.36-3.62,7.45-10.09,12.48-17.96,15.16Z"/>
                <g>
                  <path class="cls-16" d="M816.59,634c-42.13,17.55-86.6-10.79-94.94-50.6l-4.14-19.77c-2.55-12.16-13.03-12.23-18.86-16.79-1.78-1.4-3-3.56-2.75-5.55.23-1.86,1.58-4.05,3.56-5.11,5.08-2.72,10.4-4.52,16.17-5.83l55.38-12.6,51.05-9.07,22.04-1.18c4.22-.23,10.17,3.24,9.63,8.26-.48,4.46-7.28,4.09-7.91,11.44-.4,4.65.31,9.07,1.41,13.6l4.29,17.67c2.82,11.63,2.41,23.34-.21,34.93-4.25,18.82-17.08,33.26-34.7,40.6Z"/>
                  <circle class="cls-1" cx="803.02" cy="557.46" r="21.3"/>
                </g>
                <g>
                  <path class="cls-16" d="M582.01,662.04c-25.65,10.02-53.56-.76-74.2-17.07-22.33-17.63-33.44-36.95-38.67-65l-2.85-15.27c-.79-4.23-3.55-7.15-7.4-8.89-7.3-3.28-16.24-10.21-11.9-13.5,3.56-2.7,7.97-4.15,12.44-4.41l33.32-1.93,28.52.75,53.78,2.99,59.61,2.14c5.57.2,3.66,10.47,1.54,12.77-3.26,3.55-8.54,3.9-13.08,5.16-.72,4.13.17,8.32.78,12.48,1.78,12.02,2.5,23.51.67,35.54-3.7,24.43-19.14,45.09-42.57,54.24Z"/>
                  <circle class="cls-1" cx="574.03" cy="585.85" r="21.63"/>
                </g>
              </g>
            </g>
          </g>
        </g>
        <g>
          <path class="cls-14" d="M1006.88,839.11c-8.06,8.56-18.41,14.22-29.99,15.96-9.95,1.47-22.46-3.13-22.57-10.03-.03-2.11,1.13-4.19,3.11-5.48l14.4-9.51c6.14-4.06,10.11-9.35,13.3-15.98l6.06-12.67c1.76-3.69,5.87-6.61,10.22-6.37,5.4.29,9.72,4.34,11.93,9.37,5.11,11.66,2.29,25.41-6.45,34.7Z"/>
          <path class="cls-20" d="M967.8,783.26c-1.92,13.61-10.16,25.8-21.72,33.2-10.82,6.93-27.6,6.77-27.46.63.24-10.98,13.48-15.25,17.41-24.8,6.69-16.3.82-29.6,8.35-37.07,2.84-2.82,7.29-2.21,10.74-.16,9.61,5.71,14.32,16.72,12.69,28.2Z"/>
        </g>
      </g>
      <path class="cls-13" d="M271.49,394.08c-13.24,15.27-24.88,30.33-35.31,47.42l-8.64-9.22c5.82,2.63,11.14,2.05,14.67-2.82l11.35-15.75c1.92-2.66,4.27-4.98,5.63-7.9,2.13-4.56.18-8.74-3.82-11.66l-11.8-8.64c-4.37-3.21-8.87-5.92-13.35-9.27l-3.34-2.5c-7.58-5.69-14.19-11.93-20.8-18.67l-4.53-4.61c-8.79-8.98-16.98-17.93-24.25-28.17l-3-4.21c-9.72-13.67-18.38-27.6-26.17-42.42-2.26-4.29-4.87-7.82-6.4-12.56-3.21-10.09-5.82-20.59-5.16-31.39.47-8.06,5.77-23.36,12.51-27.31-13.53,19.04-9.43,40.73.61,60.67,9.8,19.43,21.33,37.47,34.44,54.85,24.04,31.65,53.19,54.19,87.37,74.15Z"/>
      <path class="cls-3" d="M190.44,597.31l-10.3-.26c1.11-2,3.37-4.66,2.66-6.82-1.45-4.34-6.37-3.63-9.82-2.66l-7.61,2.19c-6.71,1.11-13.22-1.55-19.41-3.32-8.85-2.53-13.27-7.14-18.19-14.43-2.92-4.32-5.58-8.29-6.53-13.61l-2.05-11.59c-.34-2,.08-3.42.13-5.58l.18-9.48c.11-4.58-.82-8.61-3.82-11.77l-7.58-7.95-5.27-8.32c-2.34-3.69-3.58-8.53-4.32-12.96-.9-5.19-.5-10.69-.11-15.83,1-13.88,9.87-27.04,20.41-35.86,1.74-1.47,3.29-3.9,6.19-3.74-6.69,5.69-12.48,11.06-16.67,18.48-13.22,23.09-6.03,51.58,18.59,62.06-4.63,12.85-5.21,26.04-.97,38.44,6.06,18.67,24.12,29.54,43.39,26.02,8.56-1.58,15.43-5.77,22.22-12.09-.9,10.03-1.66,19.14-1.13,29.07Z"/>
      <path class="cls-12" d="M695.17,203.76c4.63-21.22,7.53-46.71-4.58-64.99-6.19-9.32-15.3-15.93-25.75-20.22-19.54-8.03-40.47-11.09-61.46-9.69l-9.56,1.74c.26-1.05,1.32-1.55,2.32-1.69l10.01-1.53,21.86.16,9.19,1.26,13.27,2.74c5.77,1.21,10.77,3.55,16.22,5.82l6.87,2.87,9.06,5.9,9.95,9.93c6.82,6.82,12.01,23.94,12.3,35.36.11,4,.79,7.53-.13,12.09-.74,3.66.32,7.98,2.95,10.06,1.55,1.24,3.84.53,5.5.03,2-.5,3.61-2.16,6.24-.9l-24.25,11.06Z"/>
      <path class="cls-5" d="M887.94,298.82c-3.4,14.77-7.56,28.25-15.19,41.37l-6.98,15.04c-2.58,5.53-2.08,7.35-3.24,11.98l-6.9-6.5c26.23-33.84,37.76-81.34,36.07-123.21.74.11,1.24.5,1.37,1.4,2.53,20.41-.58,40.1-5.13,59.93Z"/>
    </g>
  </g>
</svg>